<?xml version="1.0" standalone="no"?>
<!DOCTYPE svg PUBLIC "-//W3C//DTD SVG 20010904//EN"
 "http://www.w3.org/TR/2001/REC-SVG-20010904/DTD/svg10.dtd">
<svg version="1.0" xmlns="http://www.w3.org/2000/svg"
 width="512.000000pt" height="512.000000pt" viewBox="0 0 512.000000 512.000000"
 preserveAspectRatio="xMidYMid meet">
<metadata>
Created by potrace 1.14, written by Peter Selinger 2001-2017
</metadata>
<g transform="translate(0.000000,512.000000) scale(0.100000,-0.100000)"
fill="#000000" stroke="none">
<path d="M2465 5042 c-172 -34 -327 -158 -394 -315 -43 -100 -43 -104 -43
-1414 l0 -1253 -82 -57 c-239 -168 -398 -423 -440 -710 -12 -85 -14 -244 -3
-303 3 -14 8 -43 12 -65 4 -22 16 -69 27 -105 114 -356 401 -627 763 -719 81
-20 143 -26 280 -25 170 2 286 29 428 98 108 53 112 56 197 120 355 272 500
736 364 1166 -69 219 -210 410 -404 546 l-78 55 1 502 2 502 105 1 c149 2 146
2 175 27 38 33 47 76 25 124 -24 53 -55 63 -196 63 l-113 0 1 104 1 104 126 4
c134 4 160 12 180 55 16 34 13 85 -5 111 -27 39 -54 46 -179 47 l-120 1 -2
107 -1 106 119 0 c98 -1 124 2 147 17 41 27 51 45 52 92 0 35 -6 48 -30 72
-33 32 -29 32 -191 31 l-97 0 0 224 c0 145 -4 243 -12 277 -60 248 -273 418
-522 415 -40 -1 -82 -3 -93 -5z m230 -237 c67 -32 137 -108 164 -178 19 -51
20 -79 20 -1355 1 -1094 3 -1308 15 -1330 8 -15 34 -38 58 -51 363 -202 533
-586 431 -976 -73 -277 -302 -512 -578 -594 -440 -130 -905 110 -1053 544 -11
33 -23 76 -26 95 -3 19 -8 46 -11 60 -9 41 -6 203 5 261 50 267 202 473 448
610 24 13 50 36 58 51 12 22 14 235 14 1327 0 1415 -3 1332 56 1425 79 125
261 176 399 111z"/>
<path d="M2485 4416 l-32 -34 -1 -1284 c0 -1431 0 -1343 -8 -1335 -8 8 -98
-20 -167 -54 -95 -46 -185 -124 -248 -215 -32 -47 -76 -139 -83 -175 -2 -13
-9 -45 -15 -71 -14 -62 -7 -219 14 -288 62 -203 228 -371 430 -434 125 -39
281 -35 403 10 126 47 251 148 321 259 65 102 94 201 95 320 1 116 -3 148 -33
238 -40 119 -133 239 -246 313 -80 54 -197 101 -232 95 -16 -2 -15 -153 -15
1329 -1 1367 1 1308 -50 1344 -12 9 -40 16 -62 16 -31 0 -45 -7 -71 -34z m185
-2867 c60 -16 136 -59 184 -106 227 -221 145 -600 -154 -709 -64 -23 -187 -27
-252 -8 -222 65 -353 286 -301 508 40 173 169 288 367 330 21 4 114 -5 156
-15z"/>
</g>
</svg>
